<!DOCTYPE svg PUBLIC "-//W3C//DTD SVG 1.1//EN" "http://www.w3.org/Graphics/SVG/1.1/DTD/svg11.dtd">
<!-- Uploaded to: SVG Repo, www.svgrepo.com, Transformed by: SVG Repo Mixer Tools -->
<svg fill="#555" height="800px" width="800px" version="1.1" id="Layer_1" xmlns="http://www.w3.org/2000/svg" xmlns:xlink="http://www.w3.org/1999/xlink" viewBox="0 0 512 512" xml:space="preserve" stroke="#555">
<g id="SVGRepo_bgCarrier" stroke-width="0"/>
<g id="SVGRepo_tracerCarrier" stroke-linecap="round" stroke-linejoin="round"/>
<g id="SVGRepo_iconCarrier"> <g> <g> <path d="M436.494,282.174l-20.377-15.098c2.325-15.684,2.343-31.45,0.051-46.996l20.326-15.061 c2.956-2.19,4.042-6.111,2.634-9.509l-19.635-47.401c-1.408-3.399-4.952-5.405-8.586-4.861l-25.022,3.723 c-9.373-12.613-20.532-23.748-33.269-33.196l3.734-25.086c0.541-3.639-1.463-7.179-4.861-8.586l-47.401-19.633 c-3.398-1.408-7.32-0.322-9.509,2.634l-4.908,6.623V25.119C289.67,11.268,278.402,0,264.551,0h-17.102 c-13.851,0-25.119,11.268-25.119,25.119v44.607l-4.908-6.624c-2.189-2.956-6.11-4.041-9.509-2.634l-47.401,19.633 c-3.399,1.408-5.403,4.948-4.861,8.586l3.723,25.023c-12.612,9.373-23.747,20.531-33.194,33.268l-25.086-3.733 c-3.64-0.543-7.179,1.463-8.586,4.861l-19.635,47.401c-1.408,3.399-0.322,7.32,2.634,9.509l20.377,15.098 c-2.325,15.684-2.342,31.45-0.051,46.996l-20.326,15.061c-2.956,2.19-4.042,6.111-2.634,9.509l19.635,47.402 c1.408,3.399,4.952,5.404,8.586,4.861l25.023-3.723c9.373,12.613,20.531,23.748,33.268,33.196l-3.734,25.086 c-0.541,3.638,1.463,7.179,4.861,8.586l47.401,19.635c3.399,1.408,7.32,0.322,9.509-2.634l4.908-6.624v1.005 c0,0.78,0.113,1.556,0.338,2.303l25.653,85.512C249.339,509.677,252.46,512,256,512c3.54,0,6.661-2.323,7.679-5.713l25.653-85.512 c0.224-0.747,0.338-1.523,0.338-2.303v-1.005l4.908,6.624c1.548,2.09,3.961,3.245,6.443,3.245c1.028,0,2.069-0.199,3.066-0.61 l47.401-19.635c3.399-1.408,5.403-4.948,4.861-8.586l-3.723-25.023c12.613-9.373,23.749-20.533,33.196-33.268l25.085,3.733 c3.64,0.543,7.179-1.463,8.586-4.861l19.634-47.401C440.536,288.285,439.45,284.364,436.494,282.174z M238.363,25.119 c0-5.01,4.076-9.086,9.086-9.086h17.102c5.01,0,9.086,4.076,9.086,9.086v17.637h-35.273V25.119z M238.363,58.789h35.273v23.934 c-11.777-1.315-23.577-1.331-35.273-0.049V58.789z M222.33,303.75c-13.41-7.526-24.082-19.421-30.025-33.77 c-13.5-32.592-0.047-69.723,30.025-86.53V303.75z M256,476.084l-14.879-49.596h29.757L256,476.084z M273.637,410.455h-35.273 V176.963c11.837-3.14,23.967-2.982,35.273,0.026V410.455z M223.481,165.088c-43.29,17.932-63.92,67.739-45.989,111.028 c8.448,20.398,24.65,36.771,44.838,45.5v19.482c-27.974-9.609-50.177-30.385-61.626-58.028 c-21.765-52.547,3.277-113.005,55.824-134.769c52.547-21.765,113.003,3.276,134.769,55.823c10.544,25.455,10.544,53.492,0,78.946 c-10.544,25.455-30.368,45.279-55.823,55.824c-1.909,0.79-3.849,1.513-5.803,2.189v-19.487h-0.001 c20.412-8.802,36.313-24.898,44.839-45.479c8.686-20.971,8.686-44.068,0-65.039C316.577,167.789,266.771,147.159,223.481,165.088z M289.67,303.749v-120.26c13.065,7.301,23.867,18.856,30.025,33.725c7.047,17.014,7.047,35.753,0,52.767 C313.691,284.476,303.171,296.225,289.67,303.749z M407.076,327.167l-23.731-3.531c-3.015-0.449-6.021,0.85-7.761,3.351 c-9.92,14.259-22.095,26.459-36.185,36.261c-2.501,1.74-3.8,4.747-3.351,7.761l3.521,23.665l-35.836,14.844l-14.063-18.982V357.93 c4.039-1.196,8.039-2.608,11.938-4.223c29.412-12.182,52.318-35.09,64.5-64.5c12.182-29.411,12.182-61.807,0-91.217 c-25.149-60.714-95.005-89.648-155.719-64.5c-60.714,25.148-89.649,95.003-64.501,155.719 c13.937,33.648,41.659,58.492,76.44,68.717v32.613l-14.065,18.981l-35.836-14.844l3.532-23.73c0.448-3.013-0.85-6.021-3.351-7.761 c-14.259-9.922-26.459-22.096-36.261-36.185c-1.74-2.501-4.747-3.801-7.761-3.351l-23.665,3.521l-14.844-35.836l19.223-14.243 c2.449-1.814,3.657-4.859,3.118-7.859c-3.031-16.894-3.014-34.13,0.053-51.227c0.538-2.999-0.669-6.044-3.118-7.857 l-19.278-14.284l14.844-35.836l23.73,3.531c3.013,0.448,6.02-0.85,7.76-3.35c9.923-14.26,22.097-26.46,36.185-36.261 c2.501-1.739,3.8-4.747,3.351-7.76l-3.521-23.665l35.836-14.844l14.244,19.224c1.814,2.449,4.857,3.656,7.857,3.118 c16.892-3.031,34.127-3.014,51.227,0.053c2.997,0.538,6.042-0.67,7.856-3.118l14.284-19.278l35.836,14.844l-3.532,23.732 c-0.448,3.013,0.85,6.02,3.351,7.76c14.26,9.922,26.459,22.096,36.261,36.185c1.74,2.501,4.749,3.802,7.761,3.351l23.665-3.521 l14.844,35.835l-19.223,14.244c-2.449,1.814-3.657,4.858-3.118,7.857c3.031,16.895,3.014,34.13-0.053,51.227 c-0.538,2.999,0.669,6.044,3.118,7.857l19.277,14.284L407.076,327.167z"/> </g> </g> </g>
</svg>